<?xml version="1.0" encoding="UTF-8"?>
<!-- Generator: Adobe Illustrator 18.1.1, SVG Export Plug-In . SVG Version: 6.00 Build 0)  -->
<svg version="1.1" id="Layer_1" xmlns="http://www.w3.org/2000/svg" xmlns:xlink="http://www.w3.org/1999/xlink" x="0px" y="0px" viewBox="0 0 80 25" enable-background="new 0 0 80 25" xml:space="preserve">
<g>
	<path fill="#FFFFFF" d="M6.9,22.4c-2.6,0-4.9-1.8-5.6-4.3c-0.8-3.1,1.1-6.2,4.1-7l33.1-8.5c0.5-0.1,1-0.2,1.4-0.2   c0.5,0,1,0.1,1.5,0.2l32.6,8.5c1.5,0.4,2.7,1.3,3.5,2.7s1,2.9,0.6,4.4c-0.7,2.5-2.9,4.3-5.6,4.3c-0.5,0-1-0.1-1.5-0.2L40,14.1   L8.3,22.3C7.9,22.4,7.4,22.4,6.9,22.4z"/>
	<path d="M6.9,20c-1.5,0-2.8-1-3.2-2.5c-0.2-0.9-0.1-1.7,0.4-2.5c0.4-0.8,1.2-1.3,2-1.5L39.1,5c0.3-0.1,0.5-0.1,0.8-0.1   c0.3,0,0.6,0,0.8,0.1l32.6,8.5c0.9,0.2,1.6,0.8,2,1.5c0.5,0.8,0.6,1.6,0.3,2.5C75.4,19,74.1,20,72.6,20c-0.3,0-0.6,0-0.8-0.1   L40,11.6L7.7,19.9C7.5,20,7.2,20,6.9,20z"/>
</g>
</svg>